<mxfile host="app.diagrams.net" agent="Mozilla/5.0 (Windows NT 10.0; Win64; x64) AppleWebKit/537.36 (KHTML, like Gecko) Chrome/132.0.0.0 Safari/537.36 Edg/132.0.0.0" version="26.0.11">
  <diagram id="C5RBs43oDa-KdzZeNtuy" name="Page-1">
    <mxGraphModel dx="5082" dy="3039" grid="1" gridSize="10" guides="1" tooltips="1" connect="1" arrows="1" fold="1" page="1" pageScale="1" pageWidth="827" pageHeight="1169" math="0" shadow="0" adaptiveColors="simple">
      <root>
        <mxCell id="WIyWlLk6GJQsqaUBKTNV-0" />
        <mxCell id="WIyWlLk6GJQsqaUBKTNV-1" parent="WIyWlLk6GJQsqaUBKTNV-0" />
        <mxCell id="FMK7eZoFoLXm6QS3iG0V-78" value="" style="rounded=1;whiteSpace=wrap;html=1;absoluteArcSize=1;arcSize=14;strokeWidth=2;glass=0;fontFamily=Cica;movable=1;resizable=1;rotatable=1;deletable=1;editable=1;locked=0;connectable=1;labelBackgroundColor=none;" parent="WIyWlLk6GJQsqaUBKTNV-1" vertex="1">
          <mxGeometry x="-190" y="-170" width="2470" height="1330" as="geometry" />
        </mxCell>
        <mxCell id="FMK7eZoFoLXm6QS3iG0V-66" value="" style="rounded=1;whiteSpace=wrap;html=1;absoluteArcSize=1;arcSize=14;strokeWidth=2;glass=0;fontFamily=Cica;labelBackgroundColor=none;" parent="WIyWlLk6GJQsqaUBKTNV-1" vertex="1">
          <mxGeometry x="530" y="-10" width="1010" height="1120" as="geometry" />
        </mxCell>
        <mxCell id="FMK7eZoFoLXm6QS3iG0V-54" value="" style="rounded=1;whiteSpace=wrap;html=1;absoluteArcSize=1;arcSize=14;strokeWidth=2;glass=0;fontFamily=Cica;labelBackgroundColor=none;" parent="WIyWlLk6GJQsqaUBKTNV-1" vertex="1">
          <mxGeometry x="-140" y="-10" width="660" height="1120" as="geometry" />
        </mxCell>
        <mxCell id="FMK7eZoFoLXm6QS3iG0V-44" style="edgeStyle=orthogonalEdgeStyle;rounded=0;orthogonalLoop=1;jettySize=auto;html=1;entryX=0.5;entryY=0;entryDx=0;entryDy=0;fontFamily=Cica;endArrow=none;startFill=0;labelBackgroundColor=none;fontColor=default;" parent="WIyWlLk6GJQsqaUBKTNV-1" source="FMK7eZoFoLXm6QS3iG0V-0" target="FMK7eZoFoLXm6QS3iG0V-42" edge="1">
          <mxGeometry relative="1" as="geometry" />
        </mxCell>
        <mxCell id="FMK7eZoFoLXm6QS3iG0V-0" value="&lt;font&gt;開始&lt;/font&gt;" style="strokeWidth=2;html=1;shape=mxgraph.flowchart.start_1;whiteSpace=wrap;hachureGap=4;fontFamily=Cica;labelBackgroundColor=none;" parent="WIyWlLk6GJQsqaUBKTNV-1" vertex="1">
          <mxGeometry x="140" width="100" height="60" as="geometry" />
        </mxCell>
        <mxCell id="FMK7eZoFoLXm6QS3iG0V-1" value="各車位置データ&lt;div&gt;配列&lt;/div&gt;" style="strokeWidth=2;html=1;shape=mxgraph.flowchart.document2;whiteSpace=wrap;size=0.25;hachureGap=4;fontFamily=Cica;labelBackgroundColor=none;" parent="WIyWlLk6GJQsqaUBKTNV-1" vertex="1">
          <mxGeometry x="400" y="610" width="100" height="60" as="geometry" />
        </mxCell>
        <mxCell id="FMK7eZoFoLXm6QS3iG0V-2" value="&lt;font&gt;終了&lt;/font&gt;" style="strokeWidth=2;html=1;shape=mxgraph.flowchart.start_1;whiteSpace=wrap;hachureGap=4;fontFamily=Cica;labelBackgroundColor=none;" parent="WIyWlLk6GJQsqaUBKTNV-1" vertex="1">
          <mxGeometry x="140" y="1010" width="100" height="60" as="geometry" />
        </mxCell>
        <mxCell id="FMK7eZoFoLXm6QS3iG0V-41" style="edgeStyle=orthogonalEdgeStyle;rounded=0;orthogonalLoop=1;jettySize=auto;html=1;exitX=0.5;exitY=1;exitDx=0;exitDy=0;entryX=0.5;entryY=0;entryDx=0;entryDy=0;fontFamily=Cica;endArrow=none;startFill=0;labelBackgroundColor=none;fontColor=default;" parent="WIyWlLk6GJQsqaUBKTNV-1" source="FMK7eZoFoLXm6QS3iG0V-4" target="FMK7eZoFoLXm6QS3iG0V-7" edge="1">
          <mxGeometry relative="1" as="geometry" />
        </mxCell>
        <mxCell id="FMK7eZoFoLXm6QS3iG0V-4" value="&lt;font&gt;指定台数分、車をスキャン&lt;/font&gt;&lt;div&gt;&lt;font&gt;配列に複数toioデータ格納&lt;/font&gt;&lt;/div&gt;" style="rounded=1;whiteSpace=wrap;html=1;absoluteArcSize=1;arcSize=14;strokeWidth=2;fontFamily=Cica;labelBackgroundColor=none;" parent="WIyWlLk6GJQsqaUBKTNV-1" vertex="1">
          <mxGeometry x="110" y="240" width="160" height="60" as="geometry" />
        </mxCell>
        <mxCell id="FMK7eZoFoLXm6QS3iG0V-29" style="edgeStyle=orthogonalEdgeStyle;rounded=0;orthogonalLoop=1;jettySize=auto;html=1;exitX=0.5;exitY=1;exitDx=0;exitDy=0;entryX=0.5;entryY=0;entryDx=0;entryDy=0;fontFamily=Cica;endArrow=none;startFill=0;labelBackgroundColor=none;fontColor=default;" parent="WIyWlLk6GJQsqaUBKTNV-1" source="FMK7eZoFoLXm6QS3iG0V-5" target="FMK7eZoFoLXm6QS3iG0V-25" edge="1">
          <mxGeometry relative="1" as="geometry" />
        </mxCell>
        <mxCell id="FMK7eZoFoLXm6QS3iG0V-5" value="各車両からの&lt;div&gt;絶対(ワールド)&lt;span style=&quot;background-color: transparent; color: light-dark(rgb(0, 0, 0), rgb(255, 255, 255));&quot;&gt;座標、角度&lt;/span&gt;&lt;/div&gt;&lt;div&gt;&lt;span style=&quot;background-color: transparent; color: light-dark(rgb(0, 0, 0), rgb(255, 255, 255));&quot;&gt;待ち受け(BLE Notify)&lt;/span&gt;&lt;/div&gt;" style="rounded=1;whiteSpace=wrap;html=1;absoluteArcSize=1;arcSize=14;strokeWidth=2;fontFamily=Cica;labelBackgroundColor=none;" parent="WIyWlLk6GJQsqaUBKTNV-1" vertex="1">
          <mxGeometry x="210" y="530" width="160" height="60" as="geometry" />
        </mxCell>
        <mxCell id="FMK7eZoFoLXm6QS3iG0V-6" value="&lt;font&gt;一定ms待機&lt;/font&gt;" style="rounded=1;whiteSpace=wrap;html=1;absoluteArcSize=1;arcSize=14;strokeWidth=2;fontFamily=Cica;labelBackgroundColor=none;" parent="WIyWlLk6GJQsqaUBKTNV-1" vertex="1">
          <mxGeometry x="10" y="810" width="160" height="60" as="geometry" />
        </mxCell>
        <mxCell id="FMK7eZoFoLXm6QS3iG0V-46" style="edgeStyle=orthogonalEdgeStyle;rounded=0;orthogonalLoop=1;jettySize=auto;html=1;fontFamily=Cica;endArrow=none;startFill=0;labelBackgroundColor=none;fontColor=default;" parent="WIyWlLk6GJQsqaUBKTNV-1" source="FMK7eZoFoLXm6QS3iG0V-7" target="FMK7eZoFoLXm6QS3iG0V-13" edge="1">
          <mxGeometry relative="1" as="geometry" />
        </mxCell>
        <mxCell id="FMK7eZoFoLXm6QS3iG0V-47" style="edgeStyle=orthogonalEdgeStyle;rounded=0;orthogonalLoop=1;jettySize=auto;html=1;fontFamily=Cica;endArrow=none;startFill=0;labelBackgroundColor=none;fontColor=default;" parent="WIyWlLk6GJQsqaUBKTNV-1" source="FMK7eZoFoLXm6QS3iG0V-7" target="FMK7eZoFoLXm6QS3iG0V-21" edge="1">
          <mxGeometry relative="1" as="geometry" />
        </mxCell>
        <mxCell id="FMK7eZoFoLXm6QS3iG0V-7" value="&lt;font&gt;各車位置データ格納&lt;/font&gt;&lt;div&gt;&lt;font&gt;配列&lt;/font&gt;&lt;span style=&quot;background-color: transparent; color: light-dark(rgb(0, 0, 0), rgb(255, 255, 255));&quot;&gt;宣言&lt;/span&gt;&lt;/div&gt;" style="rounded=1;whiteSpace=wrap;html=1;absoluteArcSize=1;arcSize=14;strokeWidth=2;fontFamily=Cica;labelBackgroundColor=none;" parent="WIyWlLk6GJQsqaUBKTNV-1" vertex="1">
          <mxGeometry x="110" y="320" width="160" height="60" as="geometry" />
        </mxCell>
        <mxCell id="FMK7eZoFoLXm6QS3iG0V-12" value="個車両制御&lt;div&gt;メイン処理&lt;/div&gt;" style="verticalLabelPosition=bottom;verticalAlign=top;html=1;shape=process;whiteSpace=wrap;rounded=1;size=0.14;arcSize=6;spacing=0;spacingBottom=14;spacingTop=-47;strokeWidth=2;fontFamily=Cica;labelBackgroundColor=none;" parent="WIyWlLk6GJQsqaUBKTNV-1" vertex="1">
          <mxGeometry x="10" y="670" width="160" height="60" as="geometry" />
        </mxCell>
        <mxCell id="FMK7eZoFoLXm6QS3iG0V-13" value="無限ループ" style="strokeWidth=2;html=1;shape=mxgraph.flowchart.loop_limit;whiteSpace=wrap;fontFamily=Cica;labelBackgroundColor=none;" parent="WIyWlLk6GJQsqaUBKTNV-1" vertex="1">
          <mxGeometry x="10" y="450" width="160" height="60" as="geometry" />
        </mxCell>
        <mxCell id="FMK7eZoFoLXm6QS3iG0V-37" style="edgeStyle=orthogonalEdgeStyle;rounded=0;orthogonalLoop=1;jettySize=auto;html=1;fontFamily=Cica;endArrow=none;startFill=0;labelBackgroundColor=none;fontColor=default;" parent="WIyWlLk6GJQsqaUBKTNV-1" source="FMK7eZoFoLXm6QS3iG0V-16" target="FMK7eZoFoLXm6QS3iG0V-2" edge="1">
          <mxGeometry relative="1" as="geometry">
            <Array as="points">
              <mxPoint x="90" y="980" />
              <mxPoint x="190" y="980" />
            </Array>
          </mxGeometry>
        </mxCell>
        <mxCell id="FMK7eZoFoLXm6QS3iG0V-16" value="無限ループ" style="strokeWidth=2;html=1;shape=mxgraph.flowchart.loop_limit;whiteSpace=wrap;flipH=1;flipV=1;fontFamily=Cica;labelBackgroundColor=none;" parent="WIyWlLk6GJQsqaUBKTNV-1" vertex="1">
          <mxGeometry x="10" y="890" width="160" height="60" as="geometry" />
        </mxCell>
        <mxCell id="FMK7eZoFoLXm6QS3iG0V-40" style="edgeStyle=orthogonalEdgeStyle;rounded=0;orthogonalLoop=1;jettySize=auto;html=1;entryX=0.5;entryY=0;entryDx=0;entryDy=0;fontFamily=Cica;endArrow=none;startFill=0;labelBackgroundColor=none;fontColor=default;" parent="WIyWlLk6GJQsqaUBKTNV-1" source="FMK7eZoFoLXm6QS3iG0V-17" target="FMK7eZoFoLXm6QS3iG0V-4" edge="1">
          <mxGeometry relative="1" as="geometry" />
        </mxCell>
        <mxCell id="FMK7eZoFoLXm6QS3iG0V-17" value="動作車数宣言" style="rounded=1;whiteSpace=wrap;html=1;absoluteArcSize=1;arcSize=14;strokeWidth=2;fontFamily=Cica;labelBackgroundColor=none;" parent="WIyWlLk6GJQsqaUBKTNV-1" vertex="1">
          <mxGeometry x="110" y="160" width="160" height="60" as="geometry" />
        </mxCell>
        <mxCell id="FMK7eZoFoLXm6QS3iG0V-32" style="edgeStyle=orthogonalEdgeStyle;rounded=0;orthogonalLoop=1;jettySize=auto;html=1;exitX=0.5;exitY=1;exitDx=0;exitDy=0;exitPerimeter=0;entryX=0.5;entryY=0;entryDx=0;entryDy=0;fontFamily=Cica;endArrow=none;startFill=0;labelBackgroundColor=none;fontColor=default;" parent="WIyWlLk6GJQsqaUBKTNV-1" source="FMK7eZoFoLXm6QS3iG0V-18" target="FMK7eZoFoLXm6QS3iG0V-27" edge="1">
          <mxGeometry relative="1" as="geometry" />
        </mxCell>
        <mxCell id="FMK7eZoFoLXm6QS3iG0V-18" value="全動作車に対し&lt;div&gt;実行&lt;/div&gt;" style="strokeWidth=2;html=1;shape=mxgraph.flowchart.loop_limit;whiteSpace=wrap;fontFamily=Cica;labelBackgroundColor=none;" parent="WIyWlLk6GJQsqaUBKTNV-1" vertex="1">
          <mxGeometry x="10" y="530" width="160" height="40" as="geometry" />
        </mxCell>
        <mxCell id="FMK7eZoFoLXm6QS3iG0V-35" style="edgeStyle=orthogonalEdgeStyle;rounded=0;orthogonalLoop=1;jettySize=auto;html=1;exitX=0.5;exitY=0;exitDx=0;exitDy=0;exitPerimeter=0;entryX=0.5;entryY=0;entryDx=0;entryDy=0;fontFamily=Cica;endArrow=none;startFill=0;labelBackgroundColor=none;fontColor=default;" parent="WIyWlLk6GJQsqaUBKTNV-1" source="FMK7eZoFoLXm6QS3iG0V-20" target="FMK7eZoFoLXm6QS3iG0V-6" edge="1">
          <mxGeometry relative="1" as="geometry" />
        </mxCell>
        <mxCell id="FMK7eZoFoLXm6QS3iG0V-20" value="全動作車に対し&lt;div&gt;実行&lt;/div&gt;" style="strokeWidth=2;html=1;shape=mxgraph.flowchart.loop_limit;whiteSpace=wrap;flipV=1;fontFamily=Cica;labelBackgroundColor=none;" parent="WIyWlLk6GJQsqaUBKTNV-1" vertex="1">
          <mxGeometry x="10" y="750" width="160" height="40" as="geometry" />
        </mxCell>
        <mxCell id="FMK7eZoFoLXm6QS3iG0V-30" style="edgeStyle=orthogonalEdgeStyle;rounded=0;orthogonalLoop=1;jettySize=auto;html=1;exitX=0.5;exitY=1;exitDx=0;exitDy=0;exitPerimeter=0;entryX=0.5;entryY=0;entryDx=0;entryDy=0;fontFamily=Cica;endArrow=none;startFill=0;labelBackgroundColor=none;fontColor=default;" parent="WIyWlLk6GJQsqaUBKTNV-1" source="FMK7eZoFoLXm6QS3iG0V-21" target="FMK7eZoFoLXm6QS3iG0V-5" edge="1">
          <mxGeometry relative="1" as="geometry" />
        </mxCell>
        <mxCell id="FMK7eZoFoLXm6QS3iG0V-21" value="受信を待ち受け続ける" style="strokeWidth=2;html=1;shape=mxgraph.flowchart.loop_limit;whiteSpace=wrap;fontFamily=Cica;labelBackgroundColor=none;" parent="WIyWlLk6GJQsqaUBKTNV-1" vertex="1">
          <mxGeometry x="210" y="450" width="160" height="60" as="geometry" />
        </mxCell>
        <mxCell id="FMK7eZoFoLXm6QS3iG0V-22" value="受信を待ち受け続ける" style="strokeWidth=2;html=1;shape=mxgraph.flowchart.loop_limit;whiteSpace=wrap;flipH=1;flipV=1;fontFamily=Cica;labelBackgroundColor=none;" parent="WIyWlLk6GJQsqaUBKTNV-1" vertex="1">
          <mxGeometry x="210" y="890" width="160" height="60" as="geometry" />
        </mxCell>
        <mxCell id="FMK7eZoFoLXm6QS3iG0V-25" value="&lt;font&gt;該当車位置データ&lt;/font&gt;&lt;div&gt;更新&lt;/div&gt;" style="rounded=1;whiteSpace=wrap;html=1;absoluteArcSize=1;arcSize=14;strokeWidth=2;fontFamily=Cica;labelBackgroundColor=none;" parent="WIyWlLk6GJQsqaUBKTNV-1" vertex="1">
          <mxGeometry x="210" y="610" width="160" height="60" as="geometry" />
        </mxCell>
        <mxCell id="FMK7eZoFoLXm6QS3iG0V-33" style="edgeStyle=orthogonalEdgeStyle;rounded=0;orthogonalLoop=1;jettySize=auto;html=1;exitX=0.5;exitY=1;exitDx=0;exitDy=0;entryX=0.5;entryY=0;entryDx=0;entryDy=0;fontFamily=Cica;endArrow=none;startFill=0;labelBackgroundColor=none;fontColor=default;" parent="WIyWlLk6GJQsqaUBKTNV-1" source="FMK7eZoFoLXm6QS3iG0V-27" target="FMK7eZoFoLXm6QS3iG0V-12" edge="1">
          <mxGeometry relative="1" as="geometry" />
        </mxCell>
        <mxCell id="FMK7eZoFoLXm6QS3iG0V-51" style="edgeStyle=orthogonalEdgeStyle;rounded=0;orthogonalLoop=1;jettySize=auto;html=1;exitX=0.25;exitY=1;exitDx=0;exitDy=0;entryX=0.25;entryY=0;entryDx=0;entryDy=0;shape=link;fontFamily=Cica;labelBackgroundColor=none;fontColor=default;" parent="WIyWlLk6GJQsqaUBKTNV-1" source="FMK7eZoFoLXm6QS3iG0V-27" target="FMK7eZoFoLXm6QS3iG0V-12" edge="1">
          <mxGeometry relative="1" as="geometry" />
        </mxCell>
        <mxCell id="FMK7eZoFoLXm6QS3iG0V-27" value="&lt;font&gt;該当車位置データ&lt;/font&gt;&lt;div&gt;取得&lt;/div&gt;" style="rounded=1;whiteSpace=wrap;html=1;absoluteArcSize=1;arcSize=14;strokeWidth=2;fontFamily=Cica;labelBackgroundColor=none;" parent="WIyWlLk6GJQsqaUBKTNV-1" vertex="1">
          <mxGeometry x="10" y="590" width="160" height="60" as="geometry" />
        </mxCell>
        <mxCell id="FMK7eZoFoLXm6QS3iG0V-28" style="edgeStyle=orthogonalEdgeStyle;rounded=0;orthogonalLoop=1;jettySize=auto;html=1;entryX=0.5;entryY=1;entryDx=0;entryDy=0;entryPerimeter=0;fontFamily=Cica;endArrow=none;startFill=0;labelBackgroundColor=none;fontColor=default;" parent="WIyWlLk6GJQsqaUBKTNV-1" source="FMK7eZoFoLXm6QS3iG0V-25" target="FMK7eZoFoLXm6QS3iG0V-22" edge="1">
          <mxGeometry relative="1" as="geometry" />
        </mxCell>
        <mxCell id="FMK7eZoFoLXm6QS3iG0V-31" style="edgeStyle=orthogonalEdgeStyle;rounded=0;orthogonalLoop=1;jettySize=auto;html=1;exitX=0.5;exitY=1;exitDx=0;exitDy=0;exitPerimeter=0;entryX=0.5;entryY=0;entryDx=0;entryDy=0;entryPerimeter=0;fontFamily=Cica;endArrow=none;startFill=0;labelBackgroundColor=none;fontColor=default;" parent="WIyWlLk6GJQsqaUBKTNV-1" source="FMK7eZoFoLXm6QS3iG0V-13" target="FMK7eZoFoLXm6QS3iG0V-18" edge="1">
          <mxGeometry relative="1" as="geometry" />
        </mxCell>
        <mxCell id="FMK7eZoFoLXm6QS3iG0V-34" style="edgeStyle=orthogonalEdgeStyle;rounded=0;orthogonalLoop=1;jettySize=auto;html=1;exitX=0.5;exitY=1;exitDx=0;exitDy=0;entryX=0.5;entryY=1;entryDx=0;entryDy=0;entryPerimeter=0;fontFamily=Cica;endArrow=none;startFill=0;labelBackgroundColor=none;fontColor=default;" parent="WIyWlLk6GJQsqaUBKTNV-1" source="FMK7eZoFoLXm6QS3iG0V-12" target="FMK7eZoFoLXm6QS3iG0V-20" edge="1">
          <mxGeometry relative="1" as="geometry" />
        </mxCell>
        <mxCell id="FMK7eZoFoLXm6QS3iG0V-36" style="edgeStyle=orthogonalEdgeStyle;rounded=0;orthogonalLoop=1;jettySize=auto;html=1;exitX=0.5;exitY=1;exitDx=0;exitDy=0;entryX=0.5;entryY=1;entryDx=0;entryDy=0;entryPerimeter=0;fontFamily=Cica;endArrow=none;startFill=0;labelBackgroundColor=none;fontColor=default;" parent="WIyWlLk6GJQsqaUBKTNV-1" source="FMK7eZoFoLXm6QS3iG0V-6" target="FMK7eZoFoLXm6QS3iG0V-16" edge="1">
          <mxGeometry relative="1" as="geometry" />
        </mxCell>
        <mxCell id="FMK7eZoFoLXm6QS3iG0V-38" style="edgeStyle=orthogonalEdgeStyle;rounded=0;orthogonalLoop=1;jettySize=auto;html=1;entryX=0.5;entryY=0;entryDx=0;entryDy=0;entryPerimeter=0;fontFamily=Cica;endArrow=none;startFill=0;labelBackgroundColor=none;fontColor=default;" parent="WIyWlLk6GJQsqaUBKTNV-1" source="FMK7eZoFoLXm6QS3iG0V-22" target="FMK7eZoFoLXm6QS3iG0V-2" edge="1">
          <mxGeometry relative="1" as="geometry">
            <Array as="points">
              <mxPoint x="290" y="980" />
              <mxPoint x="190" y="980" />
            </Array>
          </mxGeometry>
        </mxCell>
        <mxCell id="FMK7eZoFoLXm6QS3iG0V-43" style="edgeStyle=orthogonalEdgeStyle;rounded=0;orthogonalLoop=1;jettySize=auto;html=1;entryX=0.5;entryY=0;entryDx=0;entryDy=0;fontFamily=Cica;endArrow=none;startFill=0;labelBackgroundColor=none;fontColor=default;" parent="WIyWlLk6GJQsqaUBKTNV-1" source="FMK7eZoFoLXm6QS3iG0V-42" target="FMK7eZoFoLXm6QS3iG0V-17" edge="1">
          <mxGeometry relative="1" as="geometry" />
        </mxCell>
        <mxCell id="FMK7eZoFoLXm6QS3iG0V-42" value="&lt;div&gt;toio通信仲介&lt;/div&gt;モジュールインポート&lt;div&gt;(@toio/scanner)&lt;/div&gt;" style="rounded=1;whiteSpace=wrap;html=1;absoluteArcSize=1;arcSize=14;strokeWidth=2;fontFamily=Cica;labelBackgroundColor=none;" parent="WIyWlLk6GJQsqaUBKTNV-1" vertex="1">
          <mxGeometry x="110" y="80" width="160" height="60" as="geometry" />
        </mxCell>
        <mxCell id="FMK7eZoFoLXm6QS3iG0V-48" style="edgeStyle=orthogonalEdgeStyle;rounded=0;orthogonalLoop=1;jettySize=auto;html=1;entryX=0;entryY=0.5;entryDx=0;entryDy=0;entryPerimeter=0;shape=link;endArrow=block;endFill=0;endWidth=7.948717948717949;fontFamily=Cica;labelBackgroundColor=none;fontColor=default;" parent="WIyWlLk6GJQsqaUBKTNV-1" source="FMK7eZoFoLXm6QS3iG0V-25" target="FMK7eZoFoLXm6QS3iG0V-1" edge="1">
          <mxGeometry relative="1" as="geometry" />
        </mxCell>
        <mxCell id="FMK7eZoFoLXm6QS3iG0V-50" style="edgeStyle=orthogonalEdgeStyle;rounded=0;orthogonalLoop=1;jettySize=auto;html=1;entryX=0;entryY=0.5;entryDx=0;entryDy=0;shape=link;fontFamily=Cica;labelBackgroundColor=none;fontColor=default;" parent="WIyWlLk6GJQsqaUBKTNV-1" source="FMK7eZoFoLXm6QS3iG0V-49" target="FMK7eZoFoLXm6QS3iG0V-27" edge="1">
          <mxGeometry relative="1" as="geometry" />
        </mxCell>
        <mxCell id="FMK7eZoFoLXm6QS3iG0V-49" value="各車位置データ&lt;div&gt;配列&lt;/div&gt;" style="strokeWidth=2;html=1;shape=mxgraph.flowchart.document2;whiteSpace=wrap;size=0.25;hachureGap=4;fontFamily=Cica;labelBackgroundColor=none;" parent="WIyWlLk6GJQsqaUBKTNV-1" vertex="1">
          <mxGeometry x="-120" y="590" width="100" height="60" as="geometry" />
        </mxCell>
        <mxCell id="FMK7eZoFoLXm6QS3iG0V-55" value="メインループ" style="text;html=1;align=center;verticalAlign=middle;whiteSpace=wrap;rounded=0;fontSize=30;fontFamily=Cica;labelBackgroundColor=none;" parent="WIyWlLk6GJQsqaUBKTNV-1" vertex="1">
          <mxGeometry x="-140" y="-10" width="220" height="30" as="geometry" />
        </mxCell>
        <mxCell id="FMK7eZoFoLXm6QS3iG0V-67" value="個車両制御&lt;div&gt;メイン処理&lt;/div&gt;" style="text;html=1;align=center;verticalAlign=middle;whiteSpace=wrap;rounded=0;fontSize=30;fontFamily=Cica;labelBackgroundColor=none;" parent="WIyWlLk6GJQsqaUBKTNV-1" vertex="1">
          <mxGeometry x="520" y="20" width="220" height="30" as="geometry" />
        </mxCell>
        <mxCell id="FMK7eZoFoLXm6QS3iG0V-71" value="" style="rounded=1;whiteSpace=wrap;html=1;absoluteArcSize=1;arcSize=14;strokeWidth=2;glass=0;fontFamily=Cica;labelBackgroundColor=none;" parent="WIyWlLk6GJQsqaUBKTNV-1" vertex="1">
          <mxGeometry x="1560" y="660" width="660" height="450" as="geometry" />
        </mxCell>
        <mxCell id="FMK7eZoFoLXm6QS3iG0V-72" value="座標系変換" style="text;html=1;align=center;verticalAlign=middle;whiteSpace=wrap;rounded=0;fontSize=30;fontFamily=Cica;labelBackgroundColor=none;" parent="WIyWlLk6GJQsqaUBKTNV-1" vertex="1">
          <mxGeometry x="1580" y="670" width="220" height="30" as="geometry" />
        </mxCell>
        <mxCell id="FMK7eZoFoLXm6QS3iG0V-74" value="" style="rounded=1;whiteSpace=wrap;html=1;absoluteArcSize=1;arcSize=14;strokeWidth=2;glass=0;fontFamily=Cica;labelBackgroundColor=none;" parent="WIyWlLk6GJQsqaUBKTNV-1" vertex="1">
          <mxGeometry x="1560" y="-10" width="660" height="550" as="geometry" />
        </mxCell>
        <mxCell id="L8Lop2tEL91XdPSlN_RX-64" style="edgeStyle=orthogonalEdgeStyle;rounded=0;orthogonalLoop=1;jettySize=auto;html=1;entryX=0.5;entryY=0;entryDx=0;entryDy=0;strokeColor=#FFFFFF;fontColor=#FFFFFF;" parent="WIyWlLk6GJQsqaUBKTNV-1" source="FMK7eZoFoLXm6QS3iG0V-56" target="FMK7eZoFoLXm6QS3iG0V-60" edge="1">
          <mxGeometry relative="1" as="geometry" />
        </mxCell>
        <mxCell id="FMK7eZoFoLXm6QS3iG0V-56" value="開始" style="strokeWidth=2;html=1;shape=mxgraph.flowchart.start_1;whiteSpace=wrap;hachureGap=4;fontFamily=Cica;labelBackgroundColor=none;" parent="WIyWlLk6GJQsqaUBKTNV-1" vertex="1">
          <mxGeometry x="1920" y="10" width="100" height="60" as="geometry" />
        </mxCell>
        <mxCell id="FMK7eZoFoLXm6QS3iG0V-61" style="edgeStyle=orthogonalEdgeStyle;rounded=0;orthogonalLoop=1;jettySize=auto;html=1;fontFamily=Cica;endArrow=none;startFill=0;shape=link;labelBackgroundColor=none;fontColor=default;" parent="WIyWlLk6GJQsqaUBKTNV-1" source="FMK7eZoFoLXm6QS3iG0V-57" target="FMK7eZoFoLXm6QS3iG0V-60" edge="1">
          <mxGeometry relative="1" as="geometry" />
        </mxCell>
        <mxCell id="FMK7eZoFoLXm6QS3iG0V-57" value="目標座標と&lt;div&gt;現在座標の差異(X,Y)、(絶対座標)&lt;/div&gt;&lt;div&gt;&lt;div&gt;&lt;br&gt;&lt;/div&gt;&lt;/div&gt;" style="strokeWidth=2;html=1;shape=mxgraph.flowchart.document2;whiteSpace=wrap;size=0.25;hachureGap=4;fontFamily=Cica;labelBackgroundColor=none;" parent="WIyWlLk6GJQsqaUBKTNV-1" vertex="1">
          <mxGeometry x="1750" y="110" width="110" height="60" as="geometry" />
        </mxCell>
        <mxCell id="FMK7eZoFoLXm6QS3iG0V-65" style="edgeStyle=orthogonalEdgeStyle;rounded=0;orthogonalLoop=1;jettySize=auto;html=1;entryX=0;entryY=0.5;entryDx=0;entryDy=0;fontFamily=Cica;endArrow=none;startFill=0;shape=link;labelBackgroundColor=none;fontColor=default;" parent="WIyWlLk6GJQsqaUBKTNV-1" source="FMK7eZoFoLXm6QS3iG0V-58" target="FMK7eZoFoLXm6QS3iG0V-62" edge="1">
          <mxGeometry relative="1" as="geometry" />
        </mxCell>
        <mxCell id="FMK7eZoFoLXm6QS3iG0V-58" value="車両角度&lt;br&gt;&lt;div&gt;&lt;div&gt;(絶対座標)&lt;/div&gt;&lt;/div&gt;" style="strokeWidth=2;html=1;shape=mxgraph.flowchart.document2;whiteSpace=wrap;size=0.25;hachureGap=4;fontFamily=Cica;labelBackgroundColor=none;" parent="WIyWlLk6GJQsqaUBKTNV-1" vertex="1">
          <mxGeometry x="1750" y="190" width="110" height="60" as="geometry" />
        </mxCell>
        <mxCell id="L8Lop2tEL91XdPSlN_RX-65" style="edgeStyle=orthogonalEdgeStyle;rounded=0;orthogonalLoop=1;jettySize=auto;html=1;exitX=0.5;exitY=1;exitDx=0;exitDy=0;entryX=0.5;entryY=0;entryDx=0;entryDy=0;strokeColor=#FFFFFF;fontColor=#FFFFFF;" parent="WIyWlLk6GJQsqaUBKTNV-1" source="FMK7eZoFoLXm6QS3iG0V-60" target="FMK7eZoFoLXm6QS3iG0V-62" edge="1">
          <mxGeometry relative="1" as="geometry" />
        </mxCell>
        <mxCell id="FMK7eZoFoLXm6QS3iG0V-60" value="&lt;div&gt;(0,0)-(X,Y)とY=0&lt;/div&gt;&lt;div&gt;の角度算出&lt;/div&gt;(atan2(X,Y)*180)/Pi)" style="rounded=1;whiteSpace=wrap;html=1;absoluteArcSize=1;arcSize=14;strokeWidth=2;fontFamily=Cica;labelBackgroundColor=none;" parent="WIyWlLk6GJQsqaUBKTNV-1" vertex="1">
          <mxGeometry x="1890" y="110" width="160" height="60" as="geometry" />
        </mxCell>
        <mxCell id="L8Lop2tEL91XdPSlN_RX-66" style="edgeStyle=orthogonalEdgeStyle;rounded=0;orthogonalLoop=1;jettySize=auto;html=1;exitX=0.5;exitY=1;exitDx=0;exitDy=0;entryX=0.5;entryY=0;entryDx=0;entryDy=0;strokeColor=#FFFFFF;fontColor=#FFFFFF;" parent="WIyWlLk6GJQsqaUBKTNV-1" source="FMK7eZoFoLXm6QS3iG0V-62" target="FMK7eZoFoLXm6QS3iG0V-63" edge="1">
          <mxGeometry relative="1" as="geometry" />
        </mxCell>
        <mxCell id="FMK7eZoFoLXm6QS3iG0V-62" value="上から現在車両角度を減算&lt;div&gt;実際に動くべき角度算出&lt;/div&gt;" style="rounded=1;whiteSpace=wrap;html=1;absoluteArcSize=1;arcSize=14;strokeWidth=2;fontFamily=Cica;labelBackgroundColor=none;" parent="WIyWlLk6GJQsqaUBKTNV-1" vertex="1">
          <mxGeometry x="1890" y="190" width="160" height="60" as="geometry" />
        </mxCell>
        <mxCell id="FMK7eZoFoLXm6QS3iG0V-63" value="上から360を除算 あまり取得&lt;div&gt;車両角と目標角の&lt;/div&gt;&lt;div&gt;ねじれ時対策&lt;/div&gt;" style="rounded=1;whiteSpace=wrap;html=1;absoluteArcSize=1;arcSize=14;strokeWidth=2;fontFamily=Cica;labelBackgroundColor=none;" parent="WIyWlLk6GJQsqaUBKTNV-1" vertex="1">
          <mxGeometry x="1890" y="270" width="160" height="60" as="geometry" />
        </mxCell>
        <mxCell id="FMK7eZoFoLXm6QS3iG0V-79" value="&lt;span style=&quot;background-color: transparent; color: light-dark(rgb(0, 0, 0), rgb(255, 255, 255));&quot;&gt;&lt;font style=&quot;font-size: 80px;&quot;&gt;フロー図&lt;/font&gt;&lt;/span&gt;" style="text;html=1;align=center;verticalAlign=middle;whiteSpace=wrap;rounded=0;fontSize=30;fontFamily=Cica;labelBackgroundColor=none;" parent="WIyWlLk6GJQsqaUBKTNV-1" vertex="1">
          <mxGeometry x="-160" y="-100" width="520" height="30" as="geometry" />
        </mxCell>
        <mxCell id="FMK7eZoFoLXm6QS3iG0V-80" value="&lt;div&gt;&lt;font&gt;(C)2025 Otemon PathFinder (Ozawa Kodai, Akiyama Sho, Maeda Yoshitaka)&lt;/font&gt;&lt;/div&gt;&lt;font&gt;Released under the MIT License.&lt;/font&gt;" style="text;html=1;align=left;verticalAlign=middle;whiteSpace=wrap;rounded=0;fontSize=30;fontFamily=Cica;labelBackgroundColor=none;" parent="WIyWlLk6GJQsqaUBKTNV-1" vertex="1">
          <mxGeometry x="300" y="-150" width="1210" height="120" as="geometry" />
        </mxCell>
        <mxCell id="L8Lop2tEL91XdPSlN_RX-41" style="edgeStyle=orthogonalEdgeStyle;rounded=0;orthogonalLoop=1;jettySize=auto;html=1;exitX=0.5;exitY=1;exitDx=0;exitDy=0;entryX=0.5;entryY=0;entryDx=0;entryDy=0;strokeColor=#FFFFFF;fontColor=#FFFFFF;" parent="WIyWlLk6GJQsqaUBKTNV-1" source="gO6_xxzgoAdZ1d24uuFu-6" target="L8Lop2tEL91XdPSlN_RX-11" edge="1">
          <mxGeometry relative="1" as="geometry" />
        </mxCell>
        <mxCell id="gO6_xxzgoAdZ1d24uuFu-6" value="現在地と&lt;div&gt;直前ビーコンの&lt;/div&gt;&lt;div&gt;距離差(x,y)算出&lt;/div&gt;" style="rounded=1;whiteSpace=wrap;html=1;absoluteArcSize=1;arcSize=14;strokeWidth=2;fontFamily=Cica;labelBackgroundColor=none;" parent="WIyWlLk6GJQsqaUBKTNV-1" vertex="1">
          <mxGeometry x="730" y="500" width="160" height="60" as="geometry" />
        </mxCell>
        <mxCell id="L8Lop2tEL91XdPSlN_RX-1" value="個車両制御&lt;div&gt;モーター制御&lt;/div&gt;" style="text;html=1;align=center;verticalAlign=middle;whiteSpace=wrap;rounded=0;fontSize=30;fontFamily=Cica;labelBackgroundColor=none;" parent="WIyWlLk6GJQsqaUBKTNV-1" vertex="1">
          <mxGeometry x="1560" y="30" width="220" height="30" as="geometry" />
        </mxCell>
        <mxCell id="L8Lop2tEL91XdPSlN_RX-2" value="&lt;font&gt;開始&lt;/font&gt;" style="strokeWidth=2;html=1;shape=mxgraph.flowchart.start_1;whiteSpace=wrap;hachureGap=4;fontFamily=Cica;labelBackgroundColor=none;" parent="WIyWlLk6GJQsqaUBKTNV-1" vertex="1">
          <mxGeometry x="760" y="5" width="100" height="60" as="geometry" />
        </mxCell>
        <mxCell id="L8Lop2tEL91XdPSlN_RX-3" value="分岐線走行中&lt;div&gt;フラグ&lt;/div&gt;&lt;div&gt;FALSE&lt;/div&gt;" style="strokeWidth=2;html=1;shape=mxgraph.flowchart.decision;whiteSpace=wrap;labelBackgroundColor=none;" parent="WIyWlLk6GJQsqaUBKTNV-1" vertex="1">
          <mxGeometry x="735" y="80" width="150" height="70" as="geometry" />
        </mxCell>
        <mxCell id="L8Lop2tEL91XdPSlN_RX-4" value="現在地と&lt;div&gt;目標ビーコンの&lt;/div&gt;&lt;div&gt;距離差(x,y)算出&lt;/div&gt;&lt;div&gt;(モータ制御, 走行地点用)&lt;/div&gt;" style="rounded=1;whiteSpace=wrap;html=1;absoluteArcSize=1;arcSize=14;strokeWidth=2;fontFamily=Cica;labelBackgroundColor=none;" parent="WIyWlLk6GJQsqaUBKTNV-1" vertex="1">
          <mxGeometry x="730" y="250" width="160" height="60" as="geometry" />
        </mxCell>
        <mxCell id="L8Lop2tEL91XdPSlN_RX-32" value="" style="edgeStyle=orthogonalEdgeStyle;rounded=0;orthogonalLoop=1;jettySize=auto;html=1;strokeColor=#FFFFFF;fontColor=#FFFFFF;" parent="WIyWlLk6GJQsqaUBKTNV-1" source="L8Lop2tEL91XdPSlN_RX-5" target="L8Lop2tEL91XdPSlN_RX-3" edge="1">
          <mxGeometry relative="1" as="geometry" />
        </mxCell>
        <mxCell id="L8Lop2tEL91XdPSlN_RX-35" style="edgeStyle=orthogonalEdgeStyle;rounded=0;orthogonalLoop=1;jettySize=auto;html=1;exitX=0.5;exitY=1;exitDx=0;exitDy=0;strokeColor=#FFFFFF;fontColor=#FFFFFF;" parent="WIyWlLk6GJQsqaUBKTNV-1" source="L8Lop2tEL91XdPSlN_RX-5" target="L8Lop2tEL91XdPSlN_RX-4" edge="1">
          <mxGeometry relative="1" as="geometry" />
        </mxCell>
        <mxCell id="L8Lop2tEL91XdPSlN_RX-5" value="&lt;div&gt;現在地と&lt;/div&gt;最も近いビーコン探す&lt;div&gt;(齟齬確認用)&lt;/div&gt;" style="rounded=1;whiteSpace=wrap;html=1;absoluteArcSize=1;arcSize=14;strokeWidth=2;fontFamily=Cica;labelBackgroundColor=none;" parent="WIyWlLk6GJQsqaUBKTNV-1" vertex="1">
          <mxGeometry x="730" y="170" width="160" height="60" as="geometry" />
        </mxCell>
        <mxCell id="L8Lop2tEL91XdPSlN_RX-7" value="現在地と&lt;div&gt;直前ビーコンの&lt;/div&gt;&lt;div&gt;距離差(直線)算出&lt;/div&gt;" style="rounded=1;whiteSpace=wrap;html=1;absoluteArcSize=1;arcSize=14;strokeWidth=2;fontFamily=Cica;labelBackgroundColor=none;" parent="WIyWlLk6GJQsqaUBKTNV-1" vertex="1">
          <mxGeometry x="730" y="660" width="160" height="60" as="geometry" />
        </mxCell>
        <mxCell id="L8Lop2tEL91XdPSlN_RX-40" style="edgeStyle=orthogonalEdgeStyle;rounded=0;orthogonalLoop=1;jettySize=auto;html=1;exitX=0.5;exitY=1;exitDx=0;exitDy=0;entryX=0.5;entryY=0;entryDx=0;entryDy=0;strokeColor=#FFFFFF;fontColor=#FFFFFF;" parent="WIyWlLk6GJQsqaUBKTNV-1" source="L8Lop2tEL91XdPSlN_RX-8" target="gO6_xxzgoAdZ1d24uuFu-6" edge="1">
          <mxGeometry relative="1" as="geometry" />
        </mxCell>
        <mxCell id="L8Lop2tEL91XdPSlN_RX-8" value="(目標ビーコン - 1)&lt;div&gt;直前のビーコン定義&lt;/div&gt;" style="rounded=1;whiteSpace=wrap;html=1;absoluteArcSize=1;arcSize=14;strokeWidth=2;fontFamily=Cica;labelBackgroundColor=none;" parent="WIyWlLk6GJQsqaUBKTNV-1" vertex="1">
          <mxGeometry x="730" y="420" width="160" height="60" as="geometry" />
        </mxCell>
        <mxCell id="L8Lop2tEL91XdPSlN_RX-38" style="edgeStyle=orthogonalEdgeStyle;rounded=0;orthogonalLoop=1;jettySize=auto;html=1;exitX=0.5;exitY=1;exitDx=0;exitDy=0;exitPerimeter=0;entryX=0.5;entryY=0;entryDx=0;entryDy=0;strokeColor=#FFFFFF;fontColor=#FFFFFF;" parent="WIyWlLk6GJQsqaUBKTNV-1" source="L8Lop2tEL91XdPSlN_RX-9" target="L8Lop2tEL91XdPSlN_RX-8" edge="1">
          <mxGeometry relative="1" as="geometry" />
        </mxCell>
        <mxCell id="L8Lop2tEL91XdPSlN_RX-39" style="edgeStyle=orthogonalEdgeStyle;rounded=0;orthogonalLoop=1;jettySize=auto;html=1;exitX=1;exitY=0.5;exitDx=0;exitDy=0;exitPerimeter=0;strokeColor=#FFFFFF;fontColor=#FFFFFF;" parent="WIyWlLk6GJQsqaUBKTNV-1" source="L8Lop2tEL91XdPSlN_RX-9" target="L8Lop2tEL91XdPSlN_RX-10" edge="1">
          <mxGeometry relative="1" as="geometry" />
        </mxCell>
        <mxCell id="L8Lop2tEL91XdPSlN_RX-9" value="ビーコン番号&lt;div&gt;0である&lt;/div&gt;&lt;div&gt;FALSE&lt;/div&gt;" style="strokeWidth=2;html=1;shape=mxgraph.flowchart.decision;whiteSpace=wrap;labelBackgroundColor=none;" parent="WIyWlLk6GJQsqaUBKTNV-1" vertex="1">
          <mxGeometry x="735" y="330" width="150" height="70" as="geometry" />
        </mxCell>
        <mxCell id="L8Lop2tEL91XdPSlN_RX-10" value="(目標ビーコン =&lt;div&gt;&amp;nbsp;直前のビーコン)&lt;/div&gt;" style="rounded=1;whiteSpace=wrap;html=1;absoluteArcSize=1;arcSize=14;strokeWidth=2;fontFamily=Cica;labelBackgroundColor=none;" parent="WIyWlLk6GJQsqaUBKTNV-1" vertex="1">
          <mxGeometry x="910" y="420" width="160" height="60" as="geometry" />
        </mxCell>
        <mxCell id="L8Lop2tEL91XdPSlN_RX-42" style="edgeStyle=orthogonalEdgeStyle;rounded=0;orthogonalLoop=1;jettySize=auto;html=1;exitX=0.5;exitY=1;exitDx=0;exitDy=0;entryX=0.5;entryY=0;entryDx=0;entryDy=0;strokeColor=#FFFFFF;fontColor=#FFFFFF;" parent="WIyWlLk6GJQsqaUBKTNV-1" source="L8Lop2tEL91XdPSlN_RX-11" target="L8Lop2tEL91XdPSlN_RX-7" edge="1">
          <mxGeometry relative="1" as="geometry" />
        </mxCell>
        <mxCell id="L8Lop2tEL91XdPSlN_RX-11" value="現在地と&lt;div&gt;目標ビーコンの&lt;/div&gt;&lt;div&gt;距離差(直線)算出&lt;/div&gt;" style="rounded=1;whiteSpace=wrap;html=1;absoluteArcSize=1;arcSize=14;strokeWidth=2;fontFamily=Cica;labelBackgroundColor=none;" parent="WIyWlLk6GJQsqaUBKTNV-1" vertex="1">
          <mxGeometry x="730" y="580" width="160" height="60" as="geometry" />
        </mxCell>
        <mxCell id="L8Lop2tEL91XdPSlN_RX-44" style="edgeStyle=orthogonalEdgeStyle;rounded=0;orthogonalLoop=1;jettySize=auto;html=1;exitX=1;exitY=0.5;exitDx=0;exitDy=0;exitPerimeter=0;entryX=0.5;entryY=0;entryDx=0;entryDy=0;strokeColor=#FFFFFF;fontColor=#FFFFFF;" parent="WIyWlLk6GJQsqaUBKTNV-1" source="L8Lop2tEL91XdPSlN_RX-12" target="L8Lop2tEL91XdPSlN_RX-14" edge="1">
          <mxGeometry relative="1" as="geometry" />
        </mxCell>
        <mxCell id="L8Lop2tEL91XdPSlN_RX-12" value="最近ビーコンが&lt;div&gt;(目標||直前)と&lt;/div&gt;&lt;div&gt;異なる(齟齬発生)&lt;/div&gt;&lt;div&gt;FALSE&lt;/div&gt;" style="strokeWidth=2;html=1;shape=mxgraph.flowchart.decision;whiteSpace=wrap;labelBackgroundColor=none;" parent="WIyWlLk6GJQsqaUBKTNV-1" vertex="1">
          <mxGeometry x="715" y="740" width="190" height="105" as="geometry" />
        </mxCell>
        <mxCell id="L8Lop2tEL91XdPSlN_RX-13" value="走行セクションを&lt;div&gt;最近ビーコンが直前ビーコンになるように更新(修正)&lt;/div&gt;" style="rounded=1;whiteSpace=wrap;html=1;absoluteArcSize=1;arcSize=14;strokeWidth=2;fontFamily=Cica;labelBackgroundColor=none;" parent="WIyWlLk6GJQsqaUBKTNV-1" vertex="1">
          <mxGeometry x="910" y="940" width="160" height="60" as="geometry" />
        </mxCell>
        <mxCell id="L8Lop2tEL91XdPSlN_RX-45" style="edgeStyle=orthogonalEdgeStyle;rounded=0;orthogonalLoop=1;jettySize=auto;html=1;exitX=0.5;exitY=1;exitDx=0;exitDy=0;entryX=0.5;entryY=0;entryDx=0;entryDy=0;strokeColor=#FFFFFF;fontColor=#FFFFFF;" parent="WIyWlLk6GJQsqaUBKTNV-1" source="L8Lop2tEL91XdPSlN_RX-14" target="L8Lop2tEL91XdPSlN_RX-13" edge="1">
          <mxGeometry relative="1" as="geometry" />
        </mxCell>
        <mxCell id="L8Lop2tEL91XdPSlN_RX-14" value="コンソール警告&lt;div&gt;「走行セクションに&lt;/div&gt;&lt;div&gt;齟齬発生」&lt;/div&gt;" style="rounded=1;whiteSpace=wrap;html=1;absoluteArcSize=1;arcSize=14;strokeWidth=2;fontFamily=Cica;labelBackgroundColor=none;" parent="WIyWlLk6GJQsqaUBKTNV-1" vertex="1">
          <mxGeometry x="910" y="865" width="160" height="60" as="geometry" />
        </mxCell>
        <mxCell id="L8Lop2tEL91XdPSlN_RX-48" style="edgeStyle=orthogonalEdgeStyle;rounded=0;orthogonalLoop=1;jettySize=auto;html=1;exitX=0.5;exitY=1;exitDx=0;exitDy=0;exitPerimeter=0;entryX=0.5;entryY=0;entryDx=0;entryDy=0;strokeColor=#FFFFFF;fontColor=#FFFFFF;" parent="WIyWlLk6GJQsqaUBKTNV-1" source="L8Lop2tEL91XdPSlN_RX-16" target="L8Lop2tEL91XdPSlN_RX-17" edge="1">
          <mxGeometry relative="1" as="geometry" />
        </mxCell>
        <mxCell id="L8Lop2tEL91XdPSlN_RX-49" style="edgeStyle=orthogonalEdgeStyle;rounded=0;orthogonalLoop=1;jettySize=auto;html=1;exitX=1;exitY=0.5;exitDx=0;exitDy=0;exitPerimeter=0;entryX=0.5;entryY=0;entryDx=0;entryDy=0;strokeColor=#FFFFFF;fontColor=#FFFFFF;" parent="WIyWlLk6GJQsqaUBKTNV-1" source="L8Lop2tEL91XdPSlN_RX-16" target="L8Lop2tEL91XdPSlN_RX-18" edge="1">
          <mxGeometry relative="1" as="geometry" />
        </mxCell>
        <mxCell id="L8Lop2tEL91XdPSlN_RX-16" value="自車が先頭車両&lt;div&gt;であるとき&lt;div&gt;(一周の内で)&lt;/div&gt;&lt;div&gt;FALSE&lt;/div&gt;&lt;/div&gt;" style="strokeWidth=2;html=1;shape=mxgraph.flowchart.decision;whiteSpace=wrap;labelBackgroundColor=none;" parent="WIyWlLk6GJQsqaUBKTNV-1" vertex="1">
          <mxGeometry x="1151" y="30" width="180" height="90" as="geometry" />
        </mxCell>
        <mxCell id="L8Lop2tEL91XdPSlN_RX-51" style="edgeStyle=orthogonalEdgeStyle;rounded=0;orthogonalLoop=1;jettySize=auto;html=1;exitX=0.5;exitY=1;exitDx=0;exitDy=0;strokeColor=#FFFFFF;fontColor=#FFFFFF;" parent="WIyWlLk6GJQsqaUBKTNV-1" source="L8Lop2tEL91XdPSlN_RX-17" edge="1">
          <mxGeometry relative="1" as="geometry">
            <mxPoint x="1241.4117647058824" y="220" as="targetPoint" />
          </mxGeometry>
        </mxCell>
        <mxCell id="L8Lop2tEL91XdPSlN_RX-17" value="前車両との&lt;div&gt;距離が車間距離だと定義&lt;/div&gt;" style="rounded=1;whiteSpace=wrap;html=1;absoluteArcSize=1;arcSize=14;strokeWidth=2;fontFamily=Cica;labelBackgroundColor=none;" parent="WIyWlLk6GJQsqaUBKTNV-1" vertex="1">
          <mxGeometry x="1161" y="140" width="160" height="60" as="geometry" />
        </mxCell>
        <mxCell id="L8Lop2tEL91XdPSlN_RX-18" value="最後尾車両(次の周にいる)&lt;div&gt;との距離を&lt;div&gt;車間距離と定義&lt;/div&gt;&lt;/div&gt;" style="rounded=1;whiteSpace=wrap;html=1;absoluteArcSize=1;arcSize=14;strokeWidth=2;fontFamily=Cica;labelBackgroundColor=none;" parent="WIyWlLk6GJQsqaUBKTNV-1" vertex="1">
          <mxGeometry x="1331" y="140" width="160" height="60" as="geometry" />
        </mxCell>
        <mxCell id="L8Lop2tEL91XdPSlN_RX-19" value="次に分岐線に進む&lt;div&gt;車両をランダムに定義&lt;/div&gt;" style="rounded=1;whiteSpace=wrap;html=1;absoluteArcSize=1;arcSize=14;strokeWidth=2;fontFamily=Cica;labelBackgroundColor=none;" parent="WIyWlLk6GJQsqaUBKTNV-1" vertex="1">
          <mxGeometry x="1331" y="335" width="160" height="60" as="geometry" />
        </mxCell>
        <mxCell id="L8Lop2tEL91XdPSlN_RX-53" style="edgeStyle=orthogonalEdgeStyle;rounded=0;orthogonalLoop=1;jettySize=auto;html=1;exitX=1;exitY=0.5;exitDx=0;exitDy=0;exitPerimeter=0;strokeColor=#FFFFFF;fontColor=#FFFFFF;" parent="WIyWlLk6GJQsqaUBKTNV-1" source="L8Lop2tEL91XdPSlN_RX-20" target="L8Lop2tEL91XdPSlN_RX-19" edge="1">
          <mxGeometry relative="1" as="geometry" />
        </mxCell>
        <mxCell id="L8Lop2tEL91XdPSlN_RX-20" value="先頭車両が0点の&lt;div&gt;ビーコンにいたら&lt;/div&gt;&lt;div&gt;FALSE&lt;/div&gt;" style="strokeWidth=2;html=1;shape=mxgraph.flowchart.decision;whiteSpace=wrap;labelBackgroundColor=none;" parent="WIyWlLk6GJQsqaUBKTNV-1" vertex="1">
          <mxGeometry x="1151" y="215" width="180" height="90" as="geometry" />
        </mxCell>
        <mxCell id="L8Lop2tEL91XdPSlN_RX-54" style="edgeStyle=orthogonalEdgeStyle;rounded=0;orthogonalLoop=1;jettySize=auto;html=1;exitX=0.5;exitY=1;exitDx=0;exitDy=0;exitPerimeter=0;entryX=0.5;entryY=0;entryDx=0;entryDy=0;strokeColor=#FFFFFF;fontColor=#FFFFFF;" parent="WIyWlLk6GJQsqaUBKTNV-1" source="L8Lop2tEL91XdPSlN_RX-21" target="L8Lop2tEL91XdPSlN_RX-23" edge="1">
          <mxGeometry relative="1" as="geometry" />
        </mxCell>
        <mxCell id="L8Lop2tEL91XdPSlN_RX-55" style="edgeStyle=orthogonalEdgeStyle;rounded=0;orthogonalLoop=1;jettySize=auto;html=1;exitX=1;exitY=0.5;exitDx=0;exitDy=0;exitPerimeter=0;strokeColor=#FFFFFF;fontColor=#FFFFFF;" parent="WIyWlLk6GJQsqaUBKTNV-1" source="L8Lop2tEL91XdPSlN_RX-21" target="L8Lop2tEL91XdPSlN_RX-22" edge="1">
          <mxGeometry relative="1" as="geometry" />
        </mxCell>
        <mxCell id="L8Lop2tEL91XdPSlN_RX-21" value="先頭車両であれば&lt;div&gt;FALSE&lt;/div&gt;" style="strokeWidth=2;html=1;shape=mxgraph.flowchart.decision;whiteSpace=wrap;labelBackgroundColor=none;" parent="WIyWlLk6GJQsqaUBKTNV-1" vertex="1">
          <mxGeometry x="1151" y="420" width="180" height="90" as="geometry" />
        </mxCell>
        <mxCell id="L8Lop2tEL91XdPSlN_RX-22" value="常に速度を一定に決定&lt;div&gt;(早すぎないように)&lt;/div&gt;" style="rounded=1;whiteSpace=wrap;html=1;absoluteArcSize=1;arcSize=14;strokeWidth=2;fontFamily=Cica;labelBackgroundColor=none;" parent="WIyWlLk6GJQsqaUBKTNV-1" vertex="1">
          <mxGeometry x="1331" y="525" width="160" height="60" as="geometry" />
        </mxCell>
        <mxCell id="L8Lop2tEL91XdPSlN_RX-23" value="自車の車間距離に&lt;div&gt;合わせて距離を決定&lt;/div&gt;" style="rounded=1;whiteSpace=wrap;html=1;absoluteArcSize=1;arcSize=14;strokeWidth=2;fontFamily=Cica;labelBackgroundColor=none;" parent="WIyWlLk6GJQsqaUBKTNV-1" vertex="1">
          <mxGeometry x="1161" y="525" width="160" height="60" as="geometry" />
        </mxCell>
        <mxCell id="L8Lop2tEL91XdPSlN_RX-57" style="edgeStyle=orthogonalEdgeStyle;rounded=0;orthogonalLoop=1;jettySize=auto;html=1;exitX=1;exitY=0.5;exitDx=0;exitDy=0;exitPerimeter=0;strokeColor=#FFFFFF;fontColor=#FFFFFF;" parent="WIyWlLk6GJQsqaUBKTNV-1" source="L8Lop2tEL91XdPSlN_RX-24" target="L8Lop2tEL91XdPSlN_RX-26" edge="1">
          <mxGeometry relative="1" as="geometry" />
        </mxCell>
        <mxCell id="L8Lop2tEL91XdPSlN_RX-24" value="目標ビーコンと&lt;div&gt;現在地が一定以上&lt;/div&gt;&lt;div&gt;近くなれば&lt;/div&gt;&lt;div&gt;FALSE&lt;/div&gt;" style="strokeWidth=2;html=1;shape=mxgraph.flowchart.decision;whiteSpace=wrap;labelBackgroundColor=none;" parent="WIyWlLk6GJQsqaUBKTNV-1" vertex="1">
          <mxGeometry x="1151" y="600" width="180" height="90" as="geometry" />
        </mxCell>
        <mxCell id="L8Lop2tEL91XdPSlN_RX-26" value="走行セクションを&lt;div&gt;更新(++)&lt;/div&gt;" style="rounded=1;whiteSpace=wrap;html=1;absoluteArcSize=1;arcSize=14;strokeWidth=2;fontFamily=Cica;labelBackgroundColor=none;" parent="WIyWlLk6GJQsqaUBKTNV-1" vertex="1">
          <mxGeometry x="1331" y="670" width="160" height="60" as="geometry" />
        </mxCell>
        <mxCell id="L8Lop2tEL91XdPSlN_RX-70" style="edgeStyle=orthogonalEdgeStyle;rounded=0;orthogonalLoop=1;jettySize=auto;html=1;exitX=0.5;exitY=1;exitDx=0;exitDy=0;exitPerimeter=0;entryX=0.5;entryY=0;entryDx=0;entryDy=0;strokeColor=#FFFFFF;fontColor=#FFFFFF;" parent="WIyWlLk6GJQsqaUBKTNV-1" source="L8Lop2tEL91XdPSlN_RX-28" target="L8Lop2tEL91XdPSlN_RX-69" edge="1">
          <mxGeometry relative="1" as="geometry" />
        </mxCell>
        <mxCell id="L8Lop2tEL91XdPSlN_RX-28" value="自車が&lt;div&gt;分岐線走行予定である&lt;/div&gt;&lt;div&gt;&amp;amp;&amp;amp;&lt;/div&gt;&lt;div&gt;分岐開始セクションに移行した&lt;/div&gt;&lt;div&gt;FALSE&lt;/div&gt;" style="strokeWidth=2;html=1;shape=mxgraph.flowchart.decision;whiteSpace=wrap;labelBackgroundColor=none;" parent="WIyWlLk6GJQsqaUBKTNV-1" vertex="1">
          <mxGeometry x="1321" y="745" width="180" height="90" as="geometry" />
        </mxCell>
        <mxCell id="L8Lop2tEL91XdPSlN_RX-30" style="edgeStyle=orthogonalEdgeStyle;rounded=0;orthogonalLoop=1;jettySize=auto;html=1;exitX=0.5;exitY=1;exitDx=0;exitDy=0;exitPerimeter=0;entryX=0.5;entryY=0;entryDx=0;entryDy=0;entryPerimeter=0;endArrow=none;startFill=0;labelBackgroundColor=none;fontColor=default;" parent="WIyWlLk6GJQsqaUBKTNV-1" source="L8Lop2tEL91XdPSlN_RX-2" target="L8Lop2tEL91XdPSlN_RX-3" edge="1">
          <mxGeometry relative="1" as="geometry" />
        </mxCell>
        <mxCell id="L8Lop2tEL91XdPSlN_RX-31" style="edgeStyle=orthogonalEdgeStyle;rounded=0;orthogonalLoop=1;jettySize=auto;html=1;exitX=0.5;exitY=1;exitDx=0;exitDy=0;exitPerimeter=0;entryX=0.23;entryY=0.161;entryDx=0;entryDy=0;entryPerimeter=0;labelBackgroundColor=none;fontColor=default;" parent="WIyWlLk6GJQsqaUBKTNV-1" source="L8Lop2tEL91XdPSlN_RX-3" target="FMK7eZoFoLXm6QS3iG0V-66" edge="1">
          <mxGeometry relative="1" as="geometry" />
        </mxCell>
        <mxCell id="L8Lop2tEL91XdPSlN_RX-37" style="edgeStyle=orthogonalEdgeStyle;rounded=0;orthogonalLoop=1;jettySize=auto;html=1;exitX=0.5;exitY=1;exitDx=0;exitDy=0;entryX=0.5;entryY=0;entryDx=0;entryDy=0;entryPerimeter=0;strokeColor=#FFFFFF;fontColor=#FFFFFF;" parent="WIyWlLk6GJQsqaUBKTNV-1" source="L8Lop2tEL91XdPSlN_RX-4" target="L8Lop2tEL91XdPSlN_RX-9" edge="1">
          <mxGeometry relative="1" as="geometry" />
        </mxCell>
        <mxCell id="L8Lop2tEL91XdPSlN_RX-43" style="edgeStyle=orthogonalEdgeStyle;rounded=0;orthogonalLoop=1;jettySize=auto;html=1;exitX=0.5;exitY=1;exitDx=0;exitDy=0;entryX=0.5;entryY=0;entryDx=0;entryDy=0;entryPerimeter=0;strokeColor=#FFFFFF;fontColor=#FFFFFF;" parent="WIyWlLk6GJQsqaUBKTNV-1" source="L8Lop2tEL91XdPSlN_RX-7" target="L8Lop2tEL91XdPSlN_RX-12" edge="1">
          <mxGeometry relative="1" as="geometry" />
        </mxCell>
        <mxCell id="L8Lop2tEL91XdPSlN_RX-47" style="edgeStyle=orthogonalEdgeStyle;rounded=0;orthogonalLoop=1;jettySize=auto;html=1;exitX=0.5;exitY=1;exitDx=0;exitDy=0;exitPerimeter=0;entryX=0.5;entryY=0;entryDx=0;entryDy=0;entryPerimeter=0;strokeColor=#FFFFFF;fontColor=#FFFFFF;" parent="WIyWlLk6GJQsqaUBKTNV-1" source="L8Lop2tEL91XdPSlN_RX-12" target="L8Lop2tEL91XdPSlN_RX-16" edge="1">
          <mxGeometry relative="1" as="geometry">
            <Array as="points">
              <mxPoint x="810" y="1050" />
              <mxPoint x="1100" y="1050" />
              <mxPoint x="1100" y="10" />
              <mxPoint x="1241" y="10" />
            </Array>
          </mxGeometry>
        </mxCell>
        <mxCell id="L8Lop2tEL91XdPSlN_RX-50" style="edgeStyle=orthogonalEdgeStyle;rounded=0;orthogonalLoop=1;jettySize=auto;html=1;exitX=0.5;exitY=1;exitDx=0;exitDy=0;entryX=0.5;entryY=0;entryDx=0;entryDy=0;entryPerimeter=0;strokeColor=#FFFFFF;fontColor=#FFFFFF;" parent="WIyWlLk6GJQsqaUBKTNV-1" source="L8Lop2tEL91XdPSlN_RX-18" target="L8Lop2tEL91XdPSlN_RX-20" edge="1">
          <mxGeometry relative="1" as="geometry">
            <Array as="points">
              <mxPoint x="1411" y="210" />
              <mxPoint x="1241" y="210" />
            </Array>
          </mxGeometry>
        </mxCell>
        <mxCell id="L8Lop2tEL91XdPSlN_RX-52" style="edgeStyle=orthogonalEdgeStyle;rounded=0;orthogonalLoop=1;jettySize=auto;html=1;exitX=0.5;exitY=1;exitDx=0;exitDy=0;exitPerimeter=0;entryX=0.5;entryY=0;entryDx=0;entryDy=0;entryPerimeter=0;strokeColor=#FFFFFF;fontColor=#FFFFFF;" parent="WIyWlLk6GJQsqaUBKTNV-1" source="L8Lop2tEL91XdPSlN_RX-20" target="L8Lop2tEL91XdPSlN_RX-21" edge="1">
          <mxGeometry relative="1" as="geometry" />
        </mxCell>
        <mxCell id="L8Lop2tEL91XdPSlN_RX-56" style="edgeStyle=orthogonalEdgeStyle;rounded=0;orthogonalLoop=1;jettySize=auto;html=1;exitX=0.5;exitY=1;exitDx=0;exitDy=0;entryX=0.5;entryY=0;entryDx=0;entryDy=0;entryPerimeter=0;strokeColor=#FFFFFF;fontColor=#FFFFFF;" parent="WIyWlLk6GJQsqaUBKTNV-1" source="L8Lop2tEL91XdPSlN_RX-23" target="L8Lop2tEL91XdPSlN_RX-24" edge="1">
          <mxGeometry relative="1" as="geometry" />
        </mxCell>
        <mxCell id="L8Lop2tEL91XdPSlN_RX-58" style="edgeStyle=orthogonalEdgeStyle;rounded=0;orthogonalLoop=1;jettySize=auto;html=1;exitX=0.5;exitY=1;exitDx=0;exitDy=0;entryX=0.5;entryY=0;entryDx=0;entryDy=0;entryPerimeter=0;strokeColor=#FFFFFF;fontColor=#FFFFFF;" parent="WIyWlLk6GJQsqaUBKTNV-1" source="L8Lop2tEL91XdPSlN_RX-26" target="L8Lop2tEL91XdPSlN_RX-28" edge="1">
          <mxGeometry relative="1" as="geometry" />
        </mxCell>
        <mxCell id="L8Lop2tEL91XdPSlN_RX-63" style="edgeStyle=orthogonalEdgeStyle;rounded=0;orthogonalLoop=1;jettySize=auto;html=1;exitX=0.5;exitY=1;exitDx=0;exitDy=0;exitPerimeter=0;entryX=0.5;entryY=0;entryDx=0;entryDy=0;strokeColor=#FFFFFF;fontColor=#FFFFFF;" parent="WIyWlLk6GJQsqaUBKTNV-1" source="L8Lop2tEL91XdPSlN_RX-59" target="L8Lop2tEL91XdPSlN_RX-61" edge="1">
          <mxGeometry relative="1" as="geometry" />
        </mxCell>
        <mxCell id="L8Lop2tEL91XdPSlN_RX-59" value="&lt;font&gt;開始&lt;/font&gt;" style="strokeWidth=2;html=1;shape=mxgraph.flowchart.start_1;whiteSpace=wrap;hachureGap=4;fontFamily=Cica;labelBackgroundColor=none;" parent="WIyWlLk6GJQsqaUBKTNV-1" vertex="1">
          <mxGeometry x="1840" y="690" width="100" height="60" as="geometry" />
        </mxCell>
        <mxCell id="L8Lop2tEL91XdPSlN_RX-60" value="終了" style="strokeWidth=2;html=1;shape=mxgraph.flowchart.start_1;whiteSpace=wrap;hachureGap=4;fontFamily=Cica;labelBackgroundColor=none;" parent="WIyWlLk6GJQsqaUBKTNV-1" vertex="1">
          <mxGeometry x="1840" y="990" width="100" height="60" as="geometry" />
        </mxCell>
        <mxCell id="L8Lop2tEL91XdPSlN_RX-61" value="原点(toio座標)&lt;span style=&quot;background-color: transparent; color: light-dark(rgb(0, 0, 0), rgb(255, 255, 255));&quot;&gt;(x,y)&lt;/span&gt;&lt;div&gt;&lt;span style=&quot;background-color: transparent; color: light-dark(rgb(0, 0, 0), rgb(255, 255, 255));&quot;&gt;+&lt;/span&gt;&lt;/div&gt;&lt;div&gt;求める位置(cm座標) * 7.26(変換比)&lt;/div&gt;" style="rounded=1;whiteSpace=wrap;html=1;absoluteArcSize=1;arcSize=14;strokeWidth=2;fontFamily=Cica;labelBackgroundColor=none;" parent="WIyWlLk6GJQsqaUBKTNV-1" vertex="1">
          <mxGeometry x="1810" y="850" width="160" height="60" as="geometry" />
        </mxCell>
        <mxCell id="L8Lop2tEL91XdPSlN_RX-62" style="edgeStyle=orthogonalEdgeStyle;rounded=0;orthogonalLoop=1;jettySize=auto;html=1;entryX=0.5;entryY=0;entryDx=0;entryDy=0;entryPerimeter=0;strokeColor=#FFFFFF;fontColor=#FFFFFF;" parent="WIyWlLk6GJQsqaUBKTNV-1" source="L8Lop2tEL91XdPSlN_RX-61" target="L8Lop2tEL91XdPSlN_RX-60" edge="1">
          <mxGeometry relative="1" as="geometry" />
        </mxCell>
        <mxCell id="L8Lop2tEL91XdPSlN_RX-67" value="終了" style="strokeWidth=2;html=1;shape=mxgraph.flowchart.start_1;whiteSpace=wrap;hachureGap=4;fontFamily=Cica;labelBackgroundColor=none;" parent="WIyWlLk6GJQsqaUBKTNV-1" vertex="1">
          <mxGeometry x="1920" y="360" width="100" height="60" as="geometry" />
        </mxCell>
        <mxCell id="L8Lop2tEL91XdPSlN_RX-68" style="edgeStyle=orthogonalEdgeStyle;rounded=0;orthogonalLoop=1;jettySize=auto;html=1;exitX=0.5;exitY=1;exitDx=0;exitDy=0;entryX=0.5;entryY=0;entryDx=0;entryDy=0;entryPerimeter=0;strokeColor=#FFFFFF;fontColor=#FFFFFF;" parent="WIyWlLk6GJQsqaUBKTNV-1" source="FMK7eZoFoLXm6QS3iG0V-63" target="L8Lop2tEL91XdPSlN_RX-67" edge="1">
          <mxGeometry relative="1" as="geometry" />
        </mxCell>
        <mxCell id="L8Lop2tEL91XdPSlN_RX-72" style="edgeStyle=orthogonalEdgeStyle;rounded=0;orthogonalLoop=1;jettySize=auto;html=1;exitX=0.5;exitY=1;exitDx=0;exitDy=0;entryX=0.5;entryY=0;entryDx=0;entryDy=0;strokeColor=#FFFFFF;fontColor=#FFFFFF;" parent="WIyWlLk6GJQsqaUBKTNV-1" source="L8Lop2tEL91XdPSlN_RX-69" target="L8Lop2tEL91XdPSlN_RX-71" edge="1">
          <mxGeometry relative="1" as="geometry" />
        </mxCell>
        <mxCell id="L8Lop2tEL91XdPSlN_RX-69" value="分岐線-本線変換" style="rounded=1;whiteSpace=wrap;html=1;absoluteArcSize=1;arcSize=14;strokeWidth=2;fontFamily=Cica;labelBackgroundColor=none;" parent="WIyWlLk6GJQsqaUBKTNV-1" vertex="1">
          <mxGeometry x="1331" y="850" width="160" height="60" as="geometry" />
        </mxCell>
        <mxCell id="L8Lop2tEL91XdPSlN_RX-78" style="edgeStyle=orthogonalEdgeStyle;rounded=0;orthogonalLoop=1;jettySize=auto;html=1;strokeColor=#FFFFFF;fontColor=#FFFFFF;" parent="WIyWlLk6GJQsqaUBKTNV-1" source="L8Lop2tEL91XdPSlN_RX-71" edge="1">
          <mxGeometry relative="1" as="geometry">
            <mxPoint x="1239.9999999999995" y="1010" as="targetPoint" />
          </mxGeometry>
        </mxCell>
        <mxCell id="L8Lop2tEL91XdPSlN_RX-71" value="本線での座標&lt;div&gt;を消去&lt;/div&gt;" style="rounded=1;whiteSpace=wrap;html=1;absoluteArcSize=1;arcSize=14;strokeWidth=2;fontFamily=Cica;labelBackgroundColor=none;" parent="WIyWlLk6GJQsqaUBKTNV-1" vertex="1">
          <mxGeometry x="1331" y="930" width="160" height="60" as="geometry" />
        </mxCell>
        <mxCell id="L8Lop2tEL91XdPSlN_RX-74" style="edgeStyle=orthogonalEdgeStyle;rounded=0;orthogonalLoop=1;jettySize=auto;html=1;exitX=0.5;exitY=1;exitDx=0;exitDy=0;exitPerimeter=0;entryX=0.5;entryY=0;entryDx=0;entryDy=0;entryPerimeter=0;strokeColor=#FFFFFF;fontColor=#FFFFFF;" parent="WIyWlLk6GJQsqaUBKTNV-1" source="L8Lop2tEL91XdPSlN_RX-24" target="L8Lop2tEL91XdPSlN_RX-77" edge="1">
          <mxGeometry relative="1" as="geometry">
            <mxPoint x="1240" y="1000" as="targetPoint" />
          </mxGeometry>
        </mxCell>
        <mxCell id="L8Lop2tEL91XdPSlN_RX-77" value="終了" style="strokeWidth=2;html=1;shape=mxgraph.flowchart.start_1;whiteSpace=wrap;hachureGap=4;fontFamily=Cica;labelBackgroundColor=none;" parent="WIyWlLk6GJQsqaUBKTNV-1" vertex="1">
          <mxGeometry x="1191" y="1020" width="100" height="60" as="geometry" />
        </mxCell>
      </root>
    </mxGraphModel>
  </diagram>
</mxfile>
